<svg xmlns="http://www.w3.org/2000/svg" version="1.1" xmlns:xlink="http://www.w3.org/1999/xlink" xmlns:svgjs="http://svgjs.dev/svgjs" width="2000" height="444" viewBox="0 0 2000 444"><g transform="matrix(1,0,0,1,-1.2121212121212466,0.3779380637436702)"><svg viewBox="0 0 396 88" data-background-color="#fafafa" preserveAspectRatio="xMidYMid meet" height="444" width="2000" xmlns="http://www.w3.org/2000/svg" xmlns:xlink="http://www.w3.org/1999/xlink"><g id="tight-bounds" transform="matrix(1,0,0,1,0.2400000000000091,-0.07490664326451224)"><svg viewBox="0 0 395.52 88.14981328652901" height="88.14981328652901" width="395.52"><g><svg viewBox="0 0 535.3226837816078 119.30773316998467" height="88.14981328652901" width="395.52"><g><rect width="5.580181051071184" height="86.76141232694252" x="119.614698931921" y="16.273160421521077" fill="#130912" opacity="1" stroke-width="0" stroke="transparent" fill-opacity="1" class="rect-qz-0" data-fill-palette-color="primary" rx="1%" id="qz-0" data-palette-color="#130912"></rect></g><g transform="matrix(1,0,0,1,139.80268378160784,16.488984830294562)"><svg viewBox="0 0 395.52 86.32976350939555" height="86.32976350939555" width="395.52"><g id="textblocktransform"><svg viewBox="0 0 395.52 86.32976350939555" height="86.32976350939555" width="395.52" id="textblock"><g><svg viewBox="0 0 395.52 61.87754705525197" height="61.87754705525197" width="395.52"><g transform="matrix(1,0,0,1,0,0)"><svg width="395.52" viewBox="4 -38.2 247.03 38.650000000000006" height="61.87754705525197" data-palette-color="#130912"><g class="wordmark-text-0" data-fill-palette-color="primary" id="text-0"><path d="M35.7-16.05L35.75-11.55Q35.85-5.15 35.85-1.6L35.85-1.6Q35.85-0.75 35.38-0.23 34.9 0.3 33.95 0.3L33.95 0.3Q33.05 0.3 32.52-0.23 32-0.75 32-1.55L32-1.55Q31.95-6.35 31.95-15.95L31.95-15.95Q31.95-31.1 29.8-31.1L29.8-31.1Q28.9-31.1 27.45-28.83 26-26.55 25-24.25L25-24.25Q24.05-22.05 23.4-19.65 22.75-17.25 22.05-14.1L22.05-14.1Q21.75-12.6 19.9-12.6L19.9-12.6Q19.05-12.6 18.53-12.93 18-13.25 17.75-14L17.75-14 17.05-16.5Q15.75-21.7 14.85-24L14.85-24Q13.85-26.6 12.45-28.9 11.05-31.2 10.25-31.2L10.25-31.2Q9.15-31.2 8.63-26.98 8.1-22.75 7.95-16.35L7.95-16.35Q7.9-14.1 7.9-9.4L7.9-9.4 7.9-1.55Q7.9-0.8 7.38-0.38 6.85 0.05 5.85 0.05L5.85 0.05Q4.75 0.05 4.38-0.48 4-1 4-1.9L4-1.9Q4-4.75 4.1-9.75L4.1-9.75 4.15-16.4Q4.15-26.3 5.5-30.95 6.85-35.6 9.8-35.6L9.8-35.6Q13.15-35.6 15.68-30.6 18.2-25.6 19.85-18.55L19.85-18.55Q20.75-22.65 22.4-26.6 24.05-30.55 26.15-33.08 28.25-35.6 30.45-35.6L30.45-35.6Q32.45-35.6 33.58-33.35 34.7-31.1 35.15-26.88 35.6-22.65 35.7-16.05L35.7-16.05ZM55.85 0.2Q51.75 0.2 48.77-1.58 45.8-3.35 44.27-6.28 42.75-9.2 42.75-12.65L42.75-12.65Q42.75-16.2 44.35-19.18 45.95-22.15 48.9-23.9 51.85-25.65 55.7-25.65L55.7-25.65Q59.1-25.65 61.8-24.28 64.5-22.9 66-20.45 67.5-18 67.5-14.85L67.5-14.85Q67.5-13.35 67.15-12.73 66.8-12.1 65.4-12.05L65.4-12.05 46.35-11.65Q46.35-9.75 47.5-7.75 48.65-5.75 50.77-4.4 52.9-3.05 55.7-3.05L55.7-3.05Q57.8-3.05 59.3-3.68 60.8-4.3 61.65-5.1 62.5-5.9 63.7-7.35L63.7-7.35Q64.05-7.8 64.8-7.8L64.8-7.8Q65.45-7.8 66.02-7.3 66.6-6.8 66.6-6.15L66.6-6.15Q66.6-5.65 66.2-5.1L66.2-5.1Q64.6-2.9 62.32-1.35 60.05 0.2 55.85 0.2L55.85 0.2ZM46.35-14.65L63.75-15.1Q64.25-15.1 64.25-15.8L64.25-15.8Q64.25-18.8 61.85-20.68 59.45-22.55 55.8-22.55L55.8-22.55Q53.05-22.55 50.9-21.15 48.75-19.75 47.55-17.85 46.35-15.95 46.35-14.65L46.35-14.65ZM86.7-25.45Q95.15-25.45 95.15-13.5L95.15-13.5 95.15-1.8Q95.15-0.05 93.3-0.05L93.3-0.05Q91.3-0.05 91.3-1.75L91.3-1.75 91.3-13.55Q91.3-17.95 90.3-20.03 89.3-22.1 86.7-22.1L86.7-22.1Q83.95-22.1 82.2-20 80.45-17.9 79.75-14.5L79.75-14.5Q79.3-12.2 79.3-8.85L79.3-8.85 79.35-1.45Q79.35-0.75 78.85-0.38 78.35 0 77.5 0L77.5 0Q76.55 0 76.05-0.4 75.55-0.8 75.55-1.45L75.55-1.45Q75.55-5.9 75.35-12.3L75.35-12.3Q75.2-16 75.2-18.85L75.2-18.85Q75.2-20.1 74.92-20.83 74.65-21.55 73.85-22.85L73.85-22.85Q73.65-23.15 73.65-23.55L73.65-23.55Q73.65-24.15 74.32-24.68 75-25.2 75.65-25.2L75.65-25.2Q76.3-25.2 77-24.25L77-24.25Q77.55-23.45 78.02-22.33 78.5-21.2 78.5-20.2L78.5-20.2 78.5-19.65Q79.4-22.15 81.4-23.8 83.4-25.45 86.7-25.45L86.7-25.45ZM121.44-5.5Q121.44-4.55 121.67-3.9 121.89-3.25 122.24-2.68 122.59-2.1 122.59-1.9L122.59-1.9Q122.59-1.35 122.04-0.85 121.49-0.35 120.99-0.35L120.99-0.35Q119.99-0.35 119.22-1.6 118.44-2.85 118.44-4L118.44-4 118.44-4.7Q117.39-2.4 115.22-1.2 113.04 0 110.24 0L110.24 0Q105.99 0 103.89-2.9 101.79-5.8 101.79-11.35L101.79-11.35 101.79-23.7Q101.79-24.35 102.32-24.75 102.84-25.15 103.64-25.15L103.64-25.15Q104.49-25.15 105.04-24.75 105.59-24.35 105.59-23.7L105.59-23.7 105.59-11.25Q105.59-7.05 106.79-5.1 107.99-3.15 110.64-3.15L110.64-3.15Q117.39-3.15 117.39-15.4L117.39-15.4 117.39-23.75Q117.39-24.55 117.89-25 118.39-25.45 119.24-25.45L119.24-25.45Q120.14-25.45 120.69-25 121.24-24.55 121.24-23.75L121.24-23.75 121.44-5.5ZM161.54-16.05L161.59-11.55Q161.69-5.15 161.69-1.6L161.69-1.6Q161.69-0.75 161.22-0.23 160.74 0.3 159.79 0.3L159.79 0.3Q158.89 0.3 158.37-0.23 157.84-0.75 157.84-1.55L157.84-1.55Q157.79-6.35 157.79-15.95L157.79-15.95Q157.79-31.1 155.64-31.1L155.64-31.1Q154.74-31.1 153.29-28.83 151.84-26.55 150.84-24.25L150.84-24.25Q149.89-22.05 149.24-19.65 148.59-17.25 147.89-14.1L147.89-14.1Q147.59-12.6 145.74-12.6L145.74-12.6Q144.89-12.6 144.37-12.93 143.84-13.25 143.59-14L143.59-14 142.89-16.5Q141.59-21.7 140.69-24L140.69-24Q139.69-26.6 138.29-28.9 136.89-31.2 136.09-31.2L136.09-31.2Q134.99-31.2 134.47-26.98 133.94-22.75 133.79-16.35L133.79-16.35Q133.74-14.1 133.74-9.4L133.74-9.4 133.74-1.55Q133.74-0.8 133.22-0.38 132.69 0.05 131.69 0.05L131.69 0.05Q130.59 0.05 130.22-0.48 129.84-1 129.84-1.9L129.84-1.9Q129.84-4.75 129.94-9.75L129.94-9.75 129.99-16.4Q129.99-26.3 131.34-30.95 132.69-35.6 135.64-35.6L135.64-35.6Q138.99-35.6 141.52-30.6 144.04-25.6 145.69-18.55L145.69-18.55Q146.59-22.65 148.24-26.6 149.89-30.55 151.99-33.08 154.09-35.6 156.29-35.6L156.29-35.6Q158.29-35.6 159.42-33.35 160.54-31.1 160.99-26.88 161.44-22.65 161.54-16.05L161.54-16.05ZM192.49-3.25Q193.19-3.15 193.54-2.85 193.89-2.55 193.89-1.75L193.89-1.75Q193.89-1 193.51-0.55 193.14-0.1 192.49-0.1L192.49-0.1Q190.44-0.1 189.46-0.75 188.49-1.4 187.79-3.2L187.79-3.2Q185.54 0.45 179.79 0.45L179.79 0.45Q175.74 0.45 173.24-1.35 170.74-3.15 169.66-5.93 168.59-8.7 168.59-11.8L168.59-11.8Q168.59-15.15 169.94-18.1 171.29-21.05 173.91-22.85 176.54-24.65 180.19-24.65L180.19-24.65Q182.69-24.65 184.54-23.65 186.39-22.65 187.44-20.85L187.44-20.85 187.64-22.5Q187.74-24.35 189.34-24.35L189.34-24.35Q190.34-24.35 190.86-23.88 191.39-23.4 191.29-22.75L191.29-22.75 191.14-21.5Q190.79-19.4 190.64-17.15L190.64-17.15Q190.49-15.25 190.49-12.05L190.49-12.05 190.49-8.6Q190.49-6.45 190.61-5.43 190.74-4.4 191.14-3.85 191.54-3.3 192.49-3.25L192.49-3.25ZM186.69-8.65Q186.74-11 186.74-14.7L186.74-14.7Q186.74-17.15 185.69-18.68 184.64-20.2 183.14-20.85 181.64-21.5 180.29-21.5L180.29-21.5Q177.64-21.5 175.86-20 174.09-18.5 173.26-16.25 172.44-14 172.44-11.8L172.44-11.8Q172.44-8.3 174.16-5.53 175.89-2.75 179.84-2.75L179.84-2.75Q182.79-2.75 184.71-4.28 186.64-5.8 186.69-8.65L186.69-8.65ZM203.44 0.25Q202.64 0.25 202.09-0.15 201.54-0.55 201.54-1.15L201.54-1.15 201.54-36.5Q201.54-37.3 202.04-37.75 202.54-38.2 203.44-38.2L203.44-38.2Q204.34-38.2 204.86-37.77 205.39-37.35 205.39-36.5L205.39-36.5 205.29-18.8 208.94-20.85Q216.49-25.1 218.94-26.6L218.94-26.6Q219.69-27.05 220.09-27.05L220.09-27.05Q220.79-27.05 221.31-26.33 221.84-25.6 221.84-24.75L221.84-24.75Q221.84-24.2 220.74-23.55L220.74-23.55 205.34-14.4 220.94-3.3Q221.44-2.9 221.44-2.2L221.44-2.2Q221.44-1.45 220.81-0.83 220.19-0.2 219.54-0.2L219.54-0.2Q218.94-0.2 218.04-0.75L218.04-0.75 212.89-4.35Q209.24-7.05 205.34-9.7L205.34-9.7 205.29-1.2Q205.29-0.55 204.76-0.15 204.24 0.25 203.44 0.25L203.44 0.25ZM239.38 0.2Q235.28 0.2 232.31-1.58 229.33-3.35 227.81-6.28 226.28-9.2 226.28-12.65L226.28-12.65Q226.28-16.2 227.88-19.18 229.48-22.15 232.43-23.9 235.38-25.65 239.23-25.65L239.23-25.65Q242.63-25.65 245.33-24.28 248.03-22.9 249.53-20.45 251.03-18 251.03-14.85L251.03-14.85Q251.03-13.35 250.68-12.73 250.33-12.1 248.93-12.05L248.93-12.05 229.88-11.65Q229.88-9.75 231.03-7.75 232.18-5.75 234.31-4.4 236.43-3.05 239.23-3.05L239.23-3.05Q241.33-3.05 242.83-3.68 244.33-4.3 245.18-5.1 246.03-5.9 247.23-7.35L247.23-7.35Q247.58-7.8 248.33-7.8L248.33-7.8Q248.98-7.8 249.56-7.3 250.13-6.8 250.13-6.15L250.13-6.15Q250.13-5.65 249.73-5.1L249.73-5.1Q248.13-2.9 245.86-1.35 243.58 0.2 239.38 0.2L239.38 0.2ZM229.88-14.65L247.28-15.1Q247.78-15.1 247.78-15.8L247.78-15.8Q247.78-18.8 245.38-20.68 242.98-22.55 239.33-22.55L239.33-22.55Q236.58-22.55 234.43-21.15 232.28-19.75 231.08-17.85 229.88-15.95 229.88-14.65L229.88-14.65Z" fill="#130912" data-fill-palette-color="primary"></path></g></svg></g></svg></g><g transform="matrix(1,0,0,1,0,76.48535085386764)"><svg viewBox="0 0 165.32736 9.844412655527906" height="9.844412655527906" width="165.32736"><g transform="matrix(1,0,0,1,0,0)"><svg width="165.32736" viewBox="3.25 -33 562.55 33.5" height="9.844412655527906" data-palette-color="#130912"><path d="M16.25 0L3.25 0 3.25-0.8 7.25-2.8 7.25-30.2 3.25-32.2 3.25-33 27.2-33 27.2-24.4 26.4-24.4 23.3-30.25 11.75-30.25 11.75-18.4 19.75-18.4 22.25-22.55 23.05-22.55 23.05-11.6 22.25-11.6 19.75-15.65 11.75-15.65 11.75-2.8 16.25-0.8 16.25 0ZM41.65 0L32.35 0 32.35-0.8 34.9-2.1 46-28.25 48.1-28.25 59.15-2.15 62.05-0.8 62.05 0 51.15 0 51.15-0.8 54.65-2.2 51.5-9.8 41.1-9.8 37.95-2.1 41.65-0.8 41.65 0ZM46.25-22.4L42.15-12.3 50.45-12.3 46.25-22.4ZM75.65 0.5L75.65 0.5Q73 0.5 71.07-0.05 69.15-0.6 67.15-1.55L67.15-1.55 66.7-8.3 67.5-8.3 69.85-3.8Q71.3-2.7 72.82-2.27 74.35-1.85 75.95-1.85L75.95-1.85Q78.8-1.85 80.32-3.03 81.85-4.2 81.85-6.6L81.85-6.6Q81.85-8.4 80.9-9.38 79.95-10.35 78.12-11.18 76.3-12 73.65-13.25L73.65-13.25Q70.5-14.75 69.12-16.3 67.75-17.85 67.75-20.6L67.75-20.6Q67.75-22.7 69-24.5 70.25-26.3 72.27-27.43 74.3-28.55 76.75-28.55L76.75-28.55Q78.8-28.55 80.55-28.03 82.3-27.5 84-26.7L84-26.7 84.35-20.2 83.55-20.2 81.65-24.3Q80.45-25.3 79.35-25.75 78.25-26.2 76.8-26.2L76.8-26.2Q74.3-26.2 72.87-24.95 71.45-23.7 71.45-21.65L71.45-21.65Q71.45-20.3 72.1-19.4 72.75-18.5 74.12-17.73 75.5-16.95 77.7-15.9L77.7-15.9Q80.55-14.55 82.25-13.43 83.95-12.3 84.72-10.9 85.5-9.5 85.5-7.35L85.5-7.35Q85.5-5.05 84.22-3.28 82.95-1.5 80.72-0.5 78.5 0.5 75.65 0.5ZM110.19 0L96.99 0 96.99-0.8 101.44-2.45 101.44-25.5 93.74-25.5 91.29-19.65 90.49-19.65 90.49-28 116.69-28 116.69-19.65 115.89-19.65 113.39-25.5 105.69-25.5 105.69-2.45 110.19-0.8 110.19 0ZM142.39 0L133.09 0 133.09-0.8 135.64-2.1 146.74-28.25 148.84-28.25 159.89-2.15 162.79-0.8 162.79 0 151.89 0 151.89-0.8 155.39-2.2 152.24-9.8 141.84-9.8 138.69-2.1 142.39-0.8 142.39 0ZM146.99-22.4L142.89-12.3 151.19-12.3 146.99-22.4ZM178.03 0L167.44 0 167.44-0.8 170.99-2.45 170.99-25.6 167.44-27.2 167.44-28 174.44-28 191.38-7.45 191.38-25.6 187.13-27.2 187.13-28 197.63-28 197.63-27.2 194.13-25.6 194.13 0.2 192.19 0.2 173.74-22 173.74-2.6 178.03-0.8 178.03 0ZM215.63 0L203.88 0 203.88-0.8 207.48-2.45 207.48-25.55 203.88-27.2 203.88-28 215.93-28Q220.93-28 224.41-26.4 227.88-24.8 229.71-21.93 231.53-19.05 231.53-15.25L231.53-15.25Q231.53-10.6 229.63-7.18 227.73-3.75 224.16-1.88 220.58 0 215.63 0L215.63 0ZM215.28-25.5L215.28-25.5 211.73-25.5 211.73-2.5 215.58-2.5Q221.18-2.5 224.16-5.7 227.13-8.9 227.13-14.15L227.13-14.15Q227.13-19.7 224.08-22.6 221.03-25.5 215.28-25.5ZM263.53 0L251.03 0 251.03-0.8 255.03-2.8 255.03-30.2 251.03-32.2 251.03-33 263.53-33 263.53-32.2 259.53-30.2 259.53-2.8 263.53-0.8 263.53 0ZM280.63 0L270.03 0 270.03-0.8 273.58-2.45 273.58-25.6 270.03-27.2 270.03-28 277.03-28 293.98-7.45 293.98-25.6 289.73-27.2 289.73-28 300.23-28 300.23-27.2 296.73-25.6 296.73 0.2 294.78 0.2 276.33-22 276.33-2.6 280.63-0.8 280.63 0ZM325.17 0L311.97 0 311.97-0.8 316.42-2.45 316.42-25.5 308.72-25.5 306.27-19.65 305.47-19.65 305.47-28 331.67-28 331.67-19.65 330.87-19.65 328.37-25.5 320.67-25.5 320.67-2.45 325.17-0.8 325.17 0ZM359.77 0L337.17 0 337.17-0.8 340.72-2.45 340.72-25.55 337.17-27.2 337.17-28 358.52-28 358.52-20.9 357.72-20.9 355.32-25.5 344.97-25.5 344.97-15.75 352.52-15.75 354.02-19.15 354.82-19.15 354.82-9.9 354.02-9.9 352.52-13.25 344.97-13.25 344.97-2.5 356.47-2.5 358.97-7.9 359.77-7.9 359.77 0ZM377.62 0L366.52 0 366.52-0.8 370.12-2.45 370.12-25.55 366.52-27.2 366.52-28 377.62-28Q382.27-28 384.94-26.1 387.62-24.2 387.62-20.9L387.62-20.9Q387.62-18.45 386.09-16.7 384.57-14.95 381.87-13.95L381.87-13.95 389.62-2.3 392.92-0.8 392.92 0 385.82 0 377.72-12.75 374.32-12.75 374.32-2.5 377.62-0.8 377.62 0ZM376.92-25.5L376.92-25.5 374.32-25.5 374.32-15.25 377.17-15.25Q379.87-15.25 381.49-16.63 383.12-18 383.12-20.4L383.12-20.4Q383.12-22.95 381.49-24.23 379.87-25.5 376.92-25.5ZM403.62 0L394.31 0 394.31-0.8 396.87-2.1 407.97-28.25 410.06-28.25 421.12-2.15 424.02-0.8 424.02 0 413.12 0 413.12-0.8 416.62-2.2 413.47-9.8 403.06-9.8 399.92-2.1 403.62-0.8 403.62 0ZM408.22-22.4L404.12-12.3 412.42-12.3 408.22-22.4ZM444.01 0.5L444.01 0.5Q439.71 0.5 436.36-1.3 433.01-3.1 431.09-6.23 429.16-9.35 429.16-13.3L429.16-13.3Q429.16-16.6 430.41-19.4 431.66-22.2 433.81-24.25 435.96-26.3 438.76-27.43 441.56-28.55 444.71-28.55L444.71-28.55Q447.96-28.55 449.84-27.93 451.71-27.3 453.51-26.45L453.51-26.45 453.66-19.5 452.86-19.5 450.26-24.25Q448.91-25.25 447.56-25.65 446.21-26.05 444.61-26.05L444.61-26.05Q441.36-26.05 438.84-24.5 436.31-22.95 434.86-20.28 433.41-17.6 433.41-14.3L433.41-14.3Q433.41-8.35 436.49-5.18 439.56-2 444.71-2L444.71-2Q446.36-2 447.61-2.25 448.86-2.5 450.01-3.1L450.01-3.1 453.36-8.25 454.16-8.25 453.76-1.65Q451.91-0.7 449.64-0.1 447.36 0.5 444.01 0.5ZM480.71 0L467.51 0 467.51-0.8 471.96-2.45 471.96-25.5 464.26-25.5 461.81-19.65 461.01-19.65 461.01-28 487.21-28 487.21-19.65 486.41-19.65 483.91-25.5 476.21-25.5 476.21-2.45 480.71-0.8 480.71 0ZM503.91 0L492.96 0 492.96-0.8 496.26-2.45 496.26-25.55 492.96-27.2 492.96-28 503.91-28 503.91-27.2 500.51-25.55 500.51-2.45 503.91-0.8 503.91 0ZM524.71 0.25L522.9 0.25 512-25.9 509.16-27.2 509.16-28 520.21-28 520.21-27.2 516.71-25.8 516.71-25.65 524.56-6.3 524.81-6.3 532.61-25.65 532.61-25.8 528.96-27.2 528.96-28 538.21-28 538.21-27.2 535.71-25.85 524.71 0.25ZM565.8 0L543.2 0 543.2-0.8 546.75-2.45 546.75-25.55 543.2-27.2 543.2-28 564.55-28 564.55-20.9 563.75-20.9 561.35-25.5 551-25.5 551-15.75 558.55-15.75 560.05-19.15 560.85-19.15 560.85-9.9 560.05-9.9 558.55-13.25 551-13.25 551-2.5 562.5-2.5 565-7.9 565.8-7.9 565.8 0Z" opacity="1" transform="matrix(1,0,0,1,0,0)" fill="#130912" class="slogan-text-1" data-fill-palette-color="secondary" id="text-1"></path></svg></g></svg></g></svg></g></svg></g><g><svg viewBox="0 0 105.00689513330533 119.30773316998467" height="119.30773316998467" width="105.00689513330533"><g><svg xmlns="http://www.w3.org/2000/svg" xmlns:xlink="http://www.w3.org/1999/xlink" version="1.1" x="0" y="0" viewBox="23.765 19.817 52.47099999999999 59.617" enable-background="new 0 0 100 100" xml:space="preserve" height="119.30773316998467" width="105.00689513330533" class="icon-icon-0" data-fill-palette-color="accent" id="icon-0"><path d="M38.261 27.065c0-4.003-3.245-7.248-7.248-7.248s-7.248 3.245-7.248 7.248c0 4.004 3.245 7.248 7.248 7.248S38.261 31.069 38.261 27.065zM29.431 23.665c-0.787 0.367-1.426 1-1.801 1.784-0.128 0.269-0.397 0.426-0.677 0.426-0.108 0-0.219-0.023-0.323-0.074-0.374-0.179-0.532-0.626-0.353-1 0.524-1.096 1.419-1.982 2.519-2.496 0.375-0.176 0.821-0.013 0.997 0.362C29.968 23.043 29.806 23.49 29.431 23.665zM64.771 31.266c-4.458 0-8.317 2.549-10.213 6.268 0.67 0.222 1.32 0.484 1.961 0.766 0.822-1.491 2.083-2.709 3.632-3.432 0.374-0.175 0.821-0.014 0.997 0.363 0.175 0.375 0.013 0.822-0.362 0.997-1.236 0.576-2.245 1.542-2.915 2.723 5.569 2.916 9.764 8.109 11.317 14.346 4.136-1.73 7.048-5.807 7.048-10.566C76.236 36.399 71.103 31.266 64.771 31.266zM47.586 37.909c-11.448 0-20.762 9.314-20.762 20.763 0 11.448 9.313 20.762 20.762 20.762s20.762-9.313 20.762-20.762C68.348 47.223 59.034 37.909 47.586 37.909zM40.691 43.538c-3.567 1.664-6.466 4.534-8.163 8.081-0.129 0.27-0.397 0.427-0.677 0.427-0.108 0-0.219-0.023-0.323-0.073-0.374-0.179-0.532-0.627-0.353-1 1.846-3.861 5-6.984 8.882-8.794 0.376-0.176 0.822-0.012 0.997 0.363C41.229 42.917 41.067 43.363 40.691 43.538z" fill="#e77917" data-fill-palette-color="accent"></path></svg></g></svg></g></svg></g><defs></defs></svg><rect width="395.52" height="88.14981328652901" fill="none" stroke="none" visibility="hidden"></rect></g></svg></g></svg>