<svg xmlns="http://www.w3.org/2000/svg" version="1.1" xmlns:xlink="http://www.w3.org/1999/xlink" xmlns:svgjs="http://svgjs.dev/svgjs" width="128" height="128" viewBox="0 0 128 128"><g transform="matrix(0.8046875,0,0,0.8046875,12.5221674699091,6.355846710526315)"><svg viewBox="0 0 84 95" data-background-color="#fafafa" preserveAspectRatio="xMidYMid meet" height="144" width="128" xmlns="http://www.w3.org/2000/svg" xmlns:xlink="http://www.w3.org/1999/xlink"><g id="tight-bounds" transform="matrix(1,0,0,1,-0.018078324974410975,-0.24049999999999727)"><svg viewBox="0 0 84.03615664994882 95.481" height="95.481" width="84.03615664994882"><g><svg viewBox="0 0 84.03615664994882 95.481" height="95.481" width="84.03615664994882"><g><svg viewBox="0 0 84.03615664994882 95.481" height="95.481" width="84.03615664994882"><g id="textblocktransform"><svg viewBox="0 0 84.03615664994882 95.481" height="95.481" width="84.03615664994882" id="textblock"><g><svg viewBox="0 0 84.03615664994882 95.481" height="95.481" width="84.03615664994882"><g><svg viewBox="0 0 84.03615664994882 95.481" height="95.481" width="84.03615664994882"><g><svg xmlns="http://www.w3.org/2000/svg" xmlns:xlink="http://www.w3.org/1999/xlink" version="1.1" x="0" y="0" viewBox="23.765 19.817 52.47099999999999 59.617" enable-background="new 0 0 100 100" xml:space="preserve" height="95.481" width="84.03615664994882" class="icon-icon-0" data-fill-palette-color="accent" id="icon-0"><path d="M38.261 27.065c0-4.003-3.245-7.248-7.248-7.248s-7.248 3.245-7.248 7.248c0 4.004 3.245 7.248 7.248 7.248S38.261 31.069 38.261 27.065zM29.431 23.665c-0.787 0.367-1.426 1-1.801 1.784-0.128 0.269-0.397 0.426-0.677 0.426-0.108 0-0.219-0.023-0.323-0.074-0.374-0.179-0.532-0.626-0.353-1 0.524-1.096 1.419-1.982 2.519-2.496 0.375-0.176 0.821-0.013 0.997 0.362C29.968 23.043 29.806 23.49 29.431 23.665zM64.771 31.266c-4.458 0-8.317 2.549-10.213 6.268 0.67 0.222 1.32 0.484 1.961 0.766 0.822-1.491 2.083-2.709 3.632-3.432 0.374-0.175 0.821-0.014 0.997 0.363 0.175 0.375 0.013 0.822-0.362 0.997-1.236 0.576-2.245 1.542-2.915 2.723 5.569 2.916 9.764 8.109 11.317 14.346 4.136-1.73 7.048-5.807 7.048-10.566C76.236 36.399 71.103 31.266 64.771 31.266zM47.586 37.909c-11.448 0-20.762 9.314-20.762 20.763 0 11.448 9.313 20.762 20.762 20.762s20.762-9.313 20.762-20.762C68.348 47.223 59.034 37.909 47.586 37.909zM40.691 43.538c-3.567 1.664-6.466 4.534-8.163 8.081-0.129 0.27-0.397 0.427-0.677 0.427-0.108 0-0.219-0.023-0.323-0.073-0.374-0.179-0.532-0.627-0.353-1 1.846-3.861 5-6.984 8.882-8.794 0.376-0.176 0.822-0.012 0.997 0.363C41.229 42.917 41.067 43.363 40.691 43.538z" fill="#e77917" data-fill-palette-color="accent"></path></svg></g></svg></g></svg></g></svg></g></svg></g></svg></g><defs></defs></svg><rect width="84.03615664994882" height="95.481" fill="none" stroke="none" visibility="hidden"></rect></g></svg></g></svg>